<?xml version="1.0" encoding="UTF-8" standalone="no"?>
<!-- Created with Inkscape (http://www.inkscape.org/) -->

<svg
   xmlns:dc="http://purl.org/dc/elements/1.1/"
   xmlns:cc="http://creativecommons.org/ns#"
   xmlns:rdf="http://www.w3.org/1999/02/22-rdf-syntax-ns#"
   xmlns:svg="http://www.w3.org/2000/svg"
   xmlns="http://www.w3.org/2000/svg"
   xmlns:sodipodi="http://sodipodi.sourceforge.net/DTD/sodipodi-0.dtd"
   xmlns:inkscape="http://www.inkscape.org/namespaces/inkscape"
   width="512"
   height="512"
   viewBox="0 0 512 512"
   id="svg3385"
   version="1.1"
   inkscape:version="0.91 r13725"
   inkscape:export-filename="/Users/johannes/Desktop/logbuch_logo512.png"
   inkscape:export-xdpi="90"
   inkscape:export-ydpi="90"
   sodipodi:docname="logbuch_logo512.svg">
  <defs
     id="defs3387">
    <clipPath
       clipPathUnits="userSpaceOnUse"
       id="clipPath3371">
      <path
         d="m 0,2.67969 220,0 0,200 -220,0 0,-200 z"
         id="path3373"
         inkscape:connector-curvature="0" />
    </clipPath>
  </defs>
  <sodipodi:namedview
     id="base"
     pagecolor="#ffffff"
     bordercolor="#666666"
     borderopacity="1.0"
     inkscape:pageopacity="0.0"
     inkscape:pageshadow="2"
     inkscape:zoom="1.4831683"
     inkscape:cx="196.36015"
     inkscape:cy="263.69827"
     inkscape:document-units="px"
     inkscape:current-layer="layer2"
     showgrid="false"
     units="px"
     inkscape:window-width="1920"
     inkscape:window-height="1058"
     inkscape:window-x="0"
     inkscape:window-y="0"
     inkscape:window-maximized="1" />
  <metadata
     id="metadata3390">
    <rdf:RDF>
      <cc:Work
         rdf:about="">
        <dc:format>image/svg+xml</dc:format>
        <dc:type
           rdf:resource="http://purl.org/dc/dcmitype/StillImage" />
        <dc:title></dc:title>
      </cc:Work>
    </rdf:RDF>
  </metadata>
  <g
     inkscape:label="Layer 1"
     inkscape:groupmode="layer"
     id="layer1"
     transform="translate(0,-540.36216)" />
  <g
     inkscape:groupmode="layer"
     id="layer2"
     inkscape:label="Layer 2"
     transform="translate(0,368)">
    <g
       id="g3718"
       transform="matrix(3.7664976,0,0,3.7664976,-14.270563,-384.53199)">
      <rect
         ry="12"
         rx="12"
         y="916.16724"
         x="5.3938589"
         height="128.77837"
         width="132.82376"
         id="rect3438"
         style="fill:#5fbcd3"
         transform="translate(0,-908.36216)" />
      <g
         transform="matrix(0.55571965,0,0,-0.57636718,12.119578,133.81791)"
         id="g3365">
        <g
           id="g3367">
          <g
             clip-path="url(#clipPath3371)"
             id="g3369">
            <path
               inkscape:connector-curvature="0"
               id="path3375"
               style="fill:#000000;fill-opacity:1;fill-rule:nonzero;stroke:none"
               d="m 111.988,162.68 0,-71.9886 71.992,0 -71.992,71.9886 z m 8.012,-20 43.98,-43.9808 -43.98,0 0,43.9808 z" />
            <path
               inkscape:connector-curvature="0"
               id="path3377"
               style="fill:#000000;fill-opacity:1;fill-rule:nonzero;stroke:none"
               d="M 113.59,29.8711 C 83.1992,46.6602 51.9883,45.8789 23.9805,32.2891 l 0,-8.8282 c 27.2304,13.6289 56.8008,16.0196 86.4105,-0.7812 28.828,-16.01954 56.8,-16.01954 81.597,-4.8008 l 0,8.7813 C 168.012,15.4883 141.602,14.6719 113.59,29.8711 Z" />
            <path
               inkscape:connector-curvature="0"
               id="path3379"
               style="fill:#000000;fill-opacity:1;fill-rule:nonzero;stroke:none"
               d="M 202.379,57.8789 C 176.02,40.3008 145.59,36.2695 113.59,53.8906 78.3984,73.8906 43.1992,69.0898 11.2109,49.8711 7.19141,47.4805 3.19922,45.0586 0,42.6797 L 0,32.2891 c 4.80078,3.9804 9.60938,7.1914 15.1992,10.3906 30.3906,17.6211 62.4219,22.3789 94.4098,3.9805 35.192,-20 68.012,-15.1914 97.582,4.0312 3.2,2.3789 6.399,3.9805 8.829,6.3984 l 0,10.3907 c -4.032,-3.1992 -8.008,-6.4024 -13.641,-9.6016 z" />
            <path
               inkscape:connector-curvature="0"
               id="path3381"
               style="fill:#000000;fill-opacity:1;fill-rule:nonzero;stroke:none"
               d="m 29.6094,67.4805 c -1.5977,2.3906 -3.1992,4.8086 -4.0196,7.1914 l 149.6092,0 c -3.211,-9.6133 -12,-15.9727 -22.39,-15.9727 l -31.207,0 c 9.609,-4.8086 19.179,-7.2304 28.789,-8.0078 l 1.597,0 c 17.621,0 31.992,14.3672 31.992,31.9883 l -80,0 0,120.0003 -7.9605,0 0,-120.0003 -80,0 c 0,-7.1914 2.3789,-13.5899 6.3594,-18.3984 2.4219,0.7773 4.8125,1.5976 7.2305,3.1992 z" />
            <path
               inkscape:connector-curvature="0"
               id="path3383"
               style="fill:#000000;fill-opacity:1;fill-rule:nonzero;stroke:none"
               d="m 80,138.699 c 0,35.973 8.0117,63.981 8.0117,63.981 0,0 -24.0312,-3.981 -48.0117,-43.981 -23.9805,-40 -23.9805,-68.0076 -23.9805,-68.0076 l 71.9922,0 c 0,0 -8.0117,11.9886 -8.0117,48.0076 z m -3.1992,-39.9998 -52,0 c 0,0 0,14.3708 18.3984,49.5708 16.0196,29.609 33.6016,40 33.6016,40 0,0 -4.8125,-23.989 -4.8125,-49.571 0,-25.629 4.8125,-39.9998 4.8125,-39.9998 z" />
          </g>
        </g>
      </g>
    </g>
  </g>
</svg>
